<svg width="300" height="300" viewBox="0 0 300 300" xmlns="http://www.w3.org/2000/svg">
  <!-- 15x15 그리드, 각 픽셀을 20x20 크기의 사각형으로 표현 -->
  
  <!-- Row 1 -->
  <rect x="100" y="0" width="20" height="20" fill="red"/>
  <rect x="120" y="0" width="20" height="20" fill="red"/>
  <rect x="140" y="0" width="20" height="20" fill="red"/>
  
  <!-- Row 2 -->
  <rect x="60" y="20" width="20" height="20" fill="red"/>
  <rect x="80" y="20" width="20" height="20" fill="red"/>
  <rect x="100" y="20" width="20" height="20" fill="red"/>
  <rect x="120" y="20" width="20" height="20" fill="red"/>
  <rect x="140" y="20" width="20" height="20" fill="red"/>
  
  <!-- Row 3 -->
  <rect x="40" y="40" width="20" height="20" fill="red"/>
  <rect x="60" y="40" width="20" height="20" fill="red"/>
  <rect x="80" y="40" width="20" height="20" fill="red"/>
  <rect x="100" y="40" width="20" height="20" fill="red"/>
  <rect x="120" y="40" width="20" height="20" fill="red"/>
  <rect x="140" y="40" width="20" height="20" fill="red"/>
  
  <!-- Row 4 -->
  <rect x="40" y="60" width="20" height="20" fill="red"/>
  <rect x="60" y="60" width="20" height="20" fill="red"/>
  <rect x="80" y="60" width="20" height="20" fill="red"/>
  <rect x="100" y="60" width="20" height="20" fill="red"/>
  <rect x="120" y="60" width="20" height="20" fill="red"/>
  <rect x="140" y="60" width="20" height="20" fill="red"/>
  
  <!-- Row 5 -->
  <rect x="60" y="80" width="20" height="20" fill="red"/>
  <rect x="80" y="80" width="20" height="20" fill="red"/>
  <rect x="100" y="80" width="20" height="20" fill="red"/>
  <rect x="120" y="80" width="20" height="20" fill="red"/>
  <rect x="140" y="80" width="20" height="20" fill="red"/>
  
  <!-- Row 6 -->
  <rect x="60" y="100" width="20" height="20" fill="red"/>
  <rect x="80" y="100" width="20" height="20" fill="red"/>
  <rect x="100" y="100" width="20" height="20" fill="red"/>
  <rect x="120" y="100" width="20" height="20" fill="red"/>
  <rect x="140" y="100" width="20" height="20" fill="red"/>
  
  <!-- Row 7 -->
  <rect x="100" y="120" width="20" height="20" fill="red"/>
  <rect x="120" y="120" width="20" height="20" fill="red"/>
  <rect x="140" y="120" width="20" height="20" fill="red"/>
  
  <!-- Row 8 -->
  <rect x="120" y="140" width="20" height="20" fill="black"/>
  <rect x="140" y="140" width="20" height="20" fill="black"/>
  
  <!-- Row 9 -->
  <rect x="120" y="160" width="20" height="20" fill="black"/>
  <rect x="140" y="160" width="20" height="20" fill="black"/>
  
  <!-- Row 10 -->
  <rect x="120" y="180" width="20" height="20" fill="black"/>
  <rect x="140" y="180" width="20" height="20" fill="black"/>
  
  <!-- Row 11 -->
  <rect x="100" y="200" width="20" height="20" fill="black"/>
  <rect x="120" y="200" width="20" height="20" fill="black"/>
  <rect x="140" y="200" width="20" height="20" fill="black"/>
  <rect x="160" y="200" width="20" height="20" fill="black"/>
  
  <!-- Row 12 -->
  <rect x="40" y="220" width="20" height="20" fill="black"/>
  <rect x="60" y="220" width="20" height="20" fill="black"/>
  <rect x="80" y="220" width="20" height="20" fill="black"/>
  <rect x="100" y="220" width="20" height="20" fill="black"/>
  <rect x="120" y="220" width="20" height="20" fill="black"/>
  <rect x="140" y="220" width="20" height="20" fill="black"/>
  <rect x="160" y="220" width="20" height="20" fill="black"/>
  <rect x="180" y="220" width="20" height="20" fill="black"/>
  <rect x="200" y="220" width="20" height="20" fill="black"/>
  <rect x="220" y="220" width="20" height="20" fill="black"/>
  
  <!-- Row 13 -->
  <rect x="40" y="240" width="20" height="20" fill="black"/>
  <rect x="60" y="240" width="20" height="20" fill="black"/>
  <rect x="80" y="240" width="20" height="20" fill="black"/>
  <rect x="100" y="240" width="20" height="20" fill="black"/>
  <rect x="120" y="240" width="20" height="20" fill="black"/>
  <rect x="140" y="240" width="20" height="20" fill="black"/>
  <rect x="160" y="240" width="20" height="20" fill="black"/>
  <rect x="180" y="240" width="20" height="20" fill="black"/>
  <rect x="200" y="240" width="20" height="20" fill="black"/>
  <rect x="220" y="240" width="20" height="20" fill="black"/>
  
  <!-- Row 14 -->
  <rect x="40" y="260" width="20" height="20" fill="black"/>
  <rect x="60" y="260" width="20" height="20" fill="black"/>
  <rect x="80" y="260" width="20" height="20" fill="black"/>
  <rect x="100" y="260" width="20" height="20" fill="black"/>
  <rect x="120" y="260" width="20" height="20" fill="black"/>
  <rect x="140" y="260" width="20" height="20" fill="black"/>
  <rect x="160" y="260" width="20" height="20" fill="black"/>
  <rect x="180" y="260" width="20" height="20" fill="black"/>
  <rect x="200" y="260" width="20" height="20" fill="black"/>
  <rect x="220" y="260" width="20" height="20" fill="black"/>
  
  <!-- Row 15 -->
  <rect x="40" y="280" width="20" height="20" fill="black"/>
  <rect x="60" y="280" width="20" height="20" fill="black"/>
  <rect x="80" y="280" width="20" height="20" fill="black"/>
  <rect x="100" y="280" width="20" height="20" fill="black"/>
  <rect x="120" y="280" width="20" height="20" fill="black"/>
  <rect x="140" y="280" width="20" height="20" fill="black"/>
  <rect x="160" y="280" width="20" height="20" fill="black"/>
  <rect x="180" y="280" width="20" height="20" fill="black"/>
  <rect x="200" y="280" width="20" height="20" fill="black"/>
  <rect x="220" y="280" width="20" height="20" fill="black"/>
</svg>