<svg width="300" height="300" viewBox="0 0 300 300" xmlns="http://www.w3.org/2000/svg">
  <!-- 15x15 그리드 각 픽셀을 20x20 크기의 사각형으로 표현 -->
  
  <!-- 기존 검은색 십자가 -->
  <!-- 2번째 줄 -->
  <rect x="140" y="20" width="20" height="20" fill="black"/>
  
  <!-- 3번째 줄 -->
  <rect x="140" y="40" width="20" height="20" fill="black"/>
  
  <!-- 4번째 줄 -->
  <rect x="60" y="60" width="20" height="20" fill="black"/>
  <rect x="100" y="60" width="20" height="20" fill="black"/>
  <rect x="120" y="60" width="20" height="20" fill="black"/>
  <rect x="140" y="60" width="20" height="20" fill="black"/>
  <rect x="160" y="60" width="20" height="20" fill="black"/>
  <rect x="180" y="60" width="20" height="20" fill="black"/>
  <rect x="220" y="60" width="20" height="20" fill="black"/>
  
  <!-- 5번째 줄 -->
  <rect x="80" y="80" width="20" height="20" fill="black"/>
  <rect x="100" y="80" width="20" height="20" fill="black"/>
  <rect x="120" y="80" width="20" height="20" fill="black"/>
  <rect x="140" y="80" width="20" height="20" fill="black"/>
  <rect x="160" y="80" width="20" height="20" fill="black"/>
  <rect x="180" y="80" width="20" height="20" fill="black"/>
  <rect x="200" y="80" width="20" height="20" fill="black"/>
  
  <!-- 6번째 줄 -->
  <rect x="60" y="100" width="20" height="20" fill="black"/>
  <rect x="80" y="100" width="20" height="20" fill="black"/>
  <rect x="100" y="100" width="20" height="20" fill="white"/>
  <rect x="120" y="100" width="20" height="20" fill="white"/>
  <rect x="140" y="100" width="20" height="20" fill="black"/>
  <rect x="160" y="100" width="20" height="20" fill="black"/>
  <rect x="180" y="100" width="20" height="20" fill="black"/>
  <rect x="200" y="100" width="20" height="20" fill="black"/>
  <rect x="220" y="100" width="20" height="20" fill="black"/>
  
  <!-- 7번째 줄 -->
  <rect x="60" y="120" width="20" height="20" fill="black"/>
  <rect x="80" y="120" width="20" height="20" fill="black"/>
  <rect x="100" y="120" width="20" height="20" fill="white"/>
  <rect x="120" y="120" width="20" height="20" fill="white"/>
  <rect x="140" y="120" width="20" height="20" fill="black"/>
  <rect x="160" y="120" width="20" height="20" fill="black"/>
  <rect x="180" y="120" width="20" height="20" fill="black"/>
  <rect x="200" y="120" width="20" height="20" fill="black"/>
  <rect x="220" y="120" width="20" height="20" fill="black"/>
  
  <!-- 8번째 줄 -->
  <rect x="20" y="140" width="20" height="20" fill="black"/>
  <rect x="40" y="140" width="20" height="20" fill="black"/>
  <rect x="60" y="140" width="20" height="20" fill="black"/>
  <rect x="80" y="140" width="20" height="20" fill="black"/>
  <rect x="100" y="140" width="20" height="20" fill="black"/>
  <rect x="120" y="140" width="20" height="20" fill="black"/>
  <rect x="140" y="140" width="20" height="20" fill="black"/>
  <rect x="160" y="140" width="20" height="20" fill="black"/>
  <rect x="180" y="140" width="20" height="20" fill="black"/>
  <rect x="200" y="140" width="20" height="20" fill="black"/>
  <rect x="220" y="140" width="20" height="20" fill="black"/>
  <rect x="240" y="140" width="20" height="20" fill="black"/>
  <rect x="260" y="140" width="20" height="20" fill="black"/>
  
  <!-- 9번째 줄 -->
  <rect x="60" y="160" width="20" height="20" fill="black"/>
  <rect x="80" y="160" width="20" height="20" fill="black"/>
  <rect x="100" y="160" width="20" height="20" fill="black"/>
  <rect x="120" y="160" width="20" height="20" fill="black"/>
  <rect x="140" y="160" width="20" height="20" fill="black"/>
  <rect x="160" y="160" width="20" height="20" fill="black"/>
  <rect x="180" y="160" width="20" height="20" fill="black"/>
  <rect x="200" y="160" width="20" height="20" fill="black"/>
  <rect x="220" y="160" width="20" height="20" fill="black"/>
  <rect x="240" y="160" width="20" height="20" fill="black"/>
  
  <!-- 10번째 줄 -->
  <rect x="60" y="180" width="20" height="20" fill="black"/>
  <rect x="80" y="180" width="20" height="20" fill="black"/>
  <rect x="100" y="180" width="20" height="20" fill="black"/>
  <rect x="120" y="180" width="20" height="20" fill="black"/>
  <rect x="140" y="180" width="20" height="20" fill="black"/>
  <rect x="160" y="180" width="20" height="20" fill="black"/>
  <rect x="180" y="180" width="20" height="20" fill="black"/>
  <rect x="200" y="180" width="20" height="20" fill="black"/>
  
  <!-- 11번째 줄 -->
  <rect x="80" y="200" width="20" height="20" fill="black"/>
  <rect x="100" y="200" width="20" height="20" fill="black"/>
  <rect x="120" y="200" width="20" height="20" fill="black"/>
  <rect x="140" y="200" width="20" height="20" fill="black"/>
  <rect x="160" y="200" width="20" height="20" fill="black"/>
  <rect x="180" y="200" width="20" height="20" fill="black"/>
  <rect x="200" y="200" width="20" height="20" fill="black"/>
  
  <!-- 12번째 줄 -->
  <rect x="60" y="220" width="20" height="20" fill="black"/>
  <rect x="100" y="220" width="20" height="20" fill="black"/>
  <rect x="120" y="220" width="20" height="20" fill="black"/>
  <rect x="140" y="220" width="20" height="20" fill="black"/>
  <rect x="160" y="220" width="20" height="20" fill="black"/>
  <rect x="180" y="220" width="20" height="20" fill="black"/>
  <rect x="220" y="220" width="20" height="20" fill="black"/>
  
  <!-- 13번째 줄 -->
  <rect x="140" y="240" width="20" height="20" fill="black"/>
  
  <!-- 14번째 줄 -->
  <rect x="140" y="260" width="20" height="20" fill="black"/>
  
  <!-- 빨간색 X - 선으로 그리기 (전체 길이) -->
  <line x1="20" y1="20" x2="280" y2="280" stroke="red" stroke-width="24"/>
  <line x1="280" y1="20" x2="20" y2="280" stroke="red" stroke-width="24"/>
</svg>